<svg xmlns="http://www.w3.org/2000/svg" viewBox="0 0 1600 900"><defs><linearGradient id="b" x1="0" y1="0" x2="1" y2="1"><stop stop-color="#030b20"/><stop offset=".55" stop-color="#092b82"/><stop offset="1" stop-color="#1458d4"/></linearGradient><radialGradient id="g"><stop stop-color="#fff8cf"/><stop offset=".45" stop-color="#ffd46b"/><stop offset="1" stop-color="#ff9c18"/></radialGradient><filter id="gl"><feGaussianBlur stdDeviation="28"/></filter><pattern id="grid" width="70" height="70" patternUnits="userSpaceOnUse"><path d="M70 0H0V70" fill="none" stroke="#fff" stroke-opacity=".06"/></pattern></defs><rect width="1600" height="900" fill="url(#b)"/><rect width="1600" height="900" fill="url(#grid)"/><circle cx="1375" cy="120" r="150" fill="url(#g)"/><circle cx="1375" cy="120" r="220" fill="#ffc44f" opacity=".12" filter="url(#gl)"/><path d="M1240 245L770 760" stroke="#ffd46b" stroke-width="105" opacity=".18"/><path d="M1195 245L790 690" stroke="#fff1ad" stroke-width="10" opacity=".88"/><g transform="translate(155 145)"><rect x="0" y="0" width="585" height="600" rx="34" fill="#071027" stroke="#fff" stroke-opacity=".16"/><path d="M48 500H535" stroke="#fff" stroke-opacity=".15"/><path d="M112 400h300" stroke="#6fd7ff" stroke-width="7" stroke-linecap="round"/><path d="M112 400c60-10 88-95 150-105s78 90 150 70" fill="none" stroke="#ffc44f" stroke-width="8"/><circle cx="115" cy="400" r="11" fill="#6fd7ff"/><circle cx="412" cy="365" r="11" fill="#ffc44f"/><rect x="125" y="185" width="260" height="200" rx="24" fill="#eaf3ff"/><path d="M178 155v230M332 155v230" stroke="#ffc44f" stroke-width="14"/><path d="M160 245h190" stroke="#0b2f8f" stroke-width="10" opacity=".65"/><circle cx="125" cy="96" r="12" fill="#6fd7ff"/><text x="155" y="106" fill="#dbe7ff" font-family="Arial" font-size="28" font-weight="700">PARIS • 1839</text><text x="58" y="565" fill="#fff" font-family="Arial" font-size="54" font-weight="800">THE FIRST SPARK</text></g><g transform="translate(900 250)"><circle cx="205" cy="105" r="88" fill="#c79a72"/><path d="M116 96c5-115 175-128 188 0-45-42-120-53-188 0" fill="#17110f"/><path d="M78 245c0-66 53-120 118-120h18c66 0 120 54 120 120v330H78z" fill="#111a2f"/><path d="M103 280h204" stroke="#d9dde7" stroke-width="22"/><path d="M122 510h165" stroke="#fff" stroke-opacity=".12" stroke-width="4"/><path d="M85 580h290" stroke="#fff" stroke-opacity=".18" stroke-width="6"/><path d="M225 335l175 190" stroke="#c79a72" stroke-width="38" stroke-linecap="round"/></g><text x="860" y="780" fill="#fff" font-family="Arial" font-size="44" font-weight="700">LIGHT BECOMES ELECTRICITY</text><text x="864" y="828" fill="#bcd0ff" font-family="Arial" font-size="25">A discovery that changed the energy story</text></svg>