<svg xmlns="http://www.w3.org/2000/svg" viewBox="0 0 1600 900"><defs><linearGradient id="bg" x1="0" y1="0" x2="0" y2="1"><stop stop-color="#01040d"/><stop offset="1" stop-color="#071c52"/></linearGradient><radialGradient id="earth" cx=".38" cy=".28"><stop stop-color="#73d4ff"/><stop offset=".45" stop-color="#1970d7"/><stop offset="1" stop-color="#07255f"/></radialGradient><linearGradient id="sun" x1="0" y1="0" x2="1" y2="0"><stop stop-color="#fff5bd"/><stop offset="1" stop-color="#ff9e1c" stop-opacity="0"/></linearGradient></defs><rect width="1600" height="900" fill="url(#bg)"/><g fill="#fff" opacity=".75"><circle cx="120" cy="130" r="3"/><circle cx="350" cy="90" r="2"/><circle cx="630" cy="180" r="3"/><circle cx="1460" cy="120" r="2"/><circle cx="1280" cy="360" r="3"/><circle cx="910" cy="110" r="2"/></g><circle cx="560" cy="1020" r="650" fill="url(#earth)"/><path d="M80 610c210-145 410-120 585 20s325 126 510 0" fill="none" stroke="#66c784" stroke-width="110" opacity=".72"/><path d="M1080 0L720 450" stroke="url(#sun)" stroke-width="170" opacity=".85"/><g transform="translate(1030 330) rotate(-11)"><rect x="-135" y="-90" width="270" height="180" rx="28" fill="#dce3ef"/><rect x="-48" y="-142" width="96" height="52" rx="8" fill="#8d9bb8"/><rect x="-500" y="-118" width="330" height="236" rx="12" fill="#0d2e84" stroke="#8eb4ff" stroke-width="8"/><path d="M-418-118v236M-336-118v236M-254-118v236M-500-39h330M-500 39h330" stroke="#527ad5" stroke-width="6"/><rect x="170" y="-118" width="330" height="236" rx="12" fill="#0d2e84" stroke="#8eb4ff" stroke-width="8"/><path d="M252-118v236M334-118v236M416-118v236M170-39h330M170 39h330" stroke="#527ad5" stroke-width="6"/><circle r="38" fill="#ffc44f"/><path d="M0 90v130" stroke="#dce3ef" stroke-width="18"/><path d="M-60 220h120" stroke="#dce3ef" stroke-width="18" stroke-linecap="round"/></g><g transform="translate(1050 690)"><rect width="360" height="88" rx="44" fill="#071129" stroke="#fff" stroke-opacity=".22"/><circle cx="58" cy="44" r="22" fill="#ffc44f"/><path d="M100 44h195" stroke="#7dc8ff" stroke-width="10" stroke-linecap="round"/><path d="M295 44l-28-20v40z" fill="#7dc8ff"/></g><text x="95" y="120" fill="#fff" font-family="Arial" font-size="62" font-weight="800">NO ELECTRIC POLES IN SPACE</text><text x="98" y="176" fill="#b7c8f6" font-family="Arial" font-size="28">Sunlight powers the mission. Batteries protect the dark moments.</text></svg>