<svg xmlns="http://www.w3.org/2000/svg" viewBox="0 0 1600 900"><defs><linearGradient id="sky" x1="0" y1="0" x2="0" y2="1"><stop stop-color="#123e9f"/><stop offset=".45" stop-color="#f3b84a"/><stop offset="1" stop-color="#7b3f22"/></linearGradient><linearGradient id="panel" x1="0" y1="0" x2="1" y2="1"><stop stop-color="#1749b4"/><stop offset="1" stop-color="#061d58"/></linearGradient></defs><rect width="1600" height="900" fill="url(#sky)"/><circle cx="1320" cy="145" r="105" fill="#ffd66c"/><path d="M0 610L260 390l210 160 160-130 275 220 250-165 445 300v125H0z" fill="#2d1c21" opacity=".72"/><g transform="translate(90 410)"><path d="M0 170L210 0l210 170v300H0z" fill="#d9b47e"/><path d="M-25 182L210-12l235 194" fill="none" stroke="#3c261d" stroke-width="34"/><rect x="70" y="260" width="115" height="210" fill="#4b2e24"/><rect x="265" y="225" width="95" height="88" fill="#f4ddad"/></g><g transform="translate(470 560)"><rect width="520" height="160" rx="12" fill="#795039"/><path d="M25 35h470M25 80h470M25 125h470" stroke="#d9b47e" stroke-width="12"/><g fill="#a72c1d"><circle cx="75" cy="55" r="13"/><circle cx="135" cy="106" r="12"/><circle cx="205" cy="60" r="14"/><circle cx="285" cy="105" r="13"/><circle cx="355" cy="60" r="12"/><circle cx="430" cy="108" r="14"/></g></g><g transform="translate(1080 440) rotate(-7)"><rect width="390" height="250" rx="16" fill="url(#panel)" stroke="#a5c0ff" stroke-width="8"/><path d="M98 0v250M196 0v250M294 0v250M0 83h390M0 166h390" stroke="#6086da" stroke-width="7"/><path d="M195 250v110M110 360h170" stroke="#272f44" stroke-width="20" stroke-linecap="round"/></g><path d="M1010 280c-165 55-273 158-350 300" fill="none" stroke="#fff2ad" stroke-width="8" stroke-dasharray="18 18"/><text x="90" y="110" fill="#fff" font-family="Arial" font-size="62" font-weight="800">SOLAR ENERGY BEFORE PANELS</text><text x="92" y="167" fill="#fff1c7" font-family="Arial" font-size="28">Daylight • heat • drying • preservation</text></svg>