<svg xmlns="http://www.w3.org/2000/svg" viewBox="0 0 1600 900"><defs><linearGradient id="bg" x1="0" y1="0" x2="1" y2="1"><stop stop-color="#061845"/><stop offset="1" stop-color="#123f9e"/></linearGradient><linearGradient id="blue" x1="0" y1="0" x2="1" y2="1"><stop stop-color="#1f5cdf"/><stop offset="1" stop-color="#061d58"/></linearGradient><linearGradient id="black" x1="0" y1="0" x2="1" y2="1"><stop stop-color="#242a36"/><stop offset="1" stop-color="#05070c"/></linearGradient></defs><rect width="1600" height="900" fill="url(#bg)"/><circle cx="1300" cy="125" r="115" fill="#ffc44f"/><path d="M1210 220L930 760" stroke="#ffd873" stroke-width="85" opacity=".15"/><g transform="translate(130 280) rotate(-8)"><rect width="610" height="390" rx="20" fill="url(#blue)" stroke="#b6ceff" stroke-width="10"/><path d="M122 0v390M244 0v390M366 0v390M488 0v390M0 98h610M0 196h610M0 294h610" stroke="#6990e6" stroke-width="8"/><rect x="30" y="30" width="122" height="48" rx="24" fill="#ffffff" fill-opacity=".9"/><text x="61" y="64" fill="#0b2f8f" font-family="Arial" font-size="25" font-weight="800">BLUE</text></g><g transform="translate(860 250) rotate(7)"><rect width="610" height="390" rx="20" fill="url(#black)" stroke="#8893aa" stroke-width="10"/><path d="M122 0v390M244 0v390M366 0v390M488 0v390M0 98h610M0 196h610M0 294h610" stroke="#343d50" stroke-width="8"/><rect x="32" y="30" width="130" height="48" rx="24" fill="#ffffff" fill-opacity=".9"/><text x="58" y="64" fill="#111722" font-family="Arial" font-size="25" font-weight="800">BLACK</text></g><text x="108" y="115" fill="#fff" font-family="Arial" font-size="62" font-weight="800">WHY BLUE OR BLACK?</text><text x="110" y="170" fill="#c4d2f7" font-family="Arial" font-size="27">Colour affects appearance. It does not certify quality.</text><rect x="420" y="750" width="760" height="80" rx="40" fill="#071127" stroke="#fff" stroke-opacity=".18"/><text x="530" y="802" fill="#fff" font-family="Arial" font-size="28" font-weight="700">LOOK BEYOND COLOUR: CHECK THE ENGINEERING</text></svg>