<svg xmlns="http://www.w3.org/2000/svg" viewBox="0 0 1600 900"><defs><linearGradient id="bg" x1="0" y1="0" x2="1" y2="1"><stop stop-color="#00030a"/><stop offset="1" stop-color="#061947"/></linearGradient><radialGradient id="earth"><stop stop-color="#4ea9f7"/><stop offset=".55" stop-color="#125db8"/><stop offset="1" stop-color="#051a3d"/></radialGradient></defs><rect width="1600" height="900" fill="url(#bg)"/><g fill="#fff" opacity=".55"><circle cx="100" cy="100" r="3"/><circle cx="350" cy="160" r="2"/><circle cx="720" cy="90" r="3"/><circle cx="1440" cy="130" r="2"/><circle cx="1320" cy="520" r="3"/></g><circle cx="210" cy="220" r="150" fill="none" stroke="#ffc44f" stroke-width="12" opacity=".18"/><circle cx="210" cy="220" r="95" fill="#ffc44f" opacity=".1"/><path d="M300 300L650 610" stroke="#ffc44f" stroke-width="90" opacity=".08"/><circle cx="980" cy="500" r="265" fill="url(#earth)"/><path d="M755 475c110-80 205-56 300 18s160 52 210 8" fill="none" stroke="#62c57d" stroke-width="72" opacity=".68"/><path d="M980 190c285 0 430 208 376 440" fill="none" stroke="#9bb4ee" stroke-opacity=".3" stroke-width="5" stroke-dasharray="18 18"/><path d="M1356 630l32 58-66-5" fill="none" stroke="#9bb4ee" stroke-width="10"/><g transform="translate(130 590)"><rect width="480" height="150" rx="30" fill="#071127" stroke="#fff" stroke-opacity=".18"/><text x="45" y="74" fill="#fff" font-family="Arial" font-size="38" font-weight="800">ABOUT 8 MINUTES</text><text x="47" y="118" fill="#b9c9ef" font-family="Arial" font-size="24">before Earth notices the change</text></g><text x="95" y="110" fill="#fff" font-family="Arial" font-size="62" font-weight="800">WHAT IF THE SUN DISAPPEARED?</text><text x="98" y="166" fill="#b8c8f0" font-family="Arial" font-size="27">A scientific thought experiment about light, gravity and life</text></svg>