<svg xmlns="http://www.w3.org/2000/svg" viewBox="0 0 1600 900"><defs><linearGradient id="sky" x1="0" y1="0" x2="0" y2="1"><stop stop-color="#0c3aa5"/><stop offset=".55" stop-color="#1f65dc"/><stop offset="1" stop-color="#061845"/></linearGradient><linearGradient id="panel" x1="0" y1="0" x2="1" y2="1"><stop stop-color="#1c5ad6"/><stop offset="1" stop-color="#061c57"/></linearGradient></defs><rect width="1600" height="900" fill="url(#sky)"/><circle cx="1350" cy="125" r="105" fill="#ffc44f"/><path d="M0 710c240-120 380-90 580 0s355 106 530 20 310-70 490 10v160H0z" fill="#07142d" opacity=".78"/><g transform="translate(160 290)"><path d="M0 280L330 0l330 280v330H0z" fill="#f4f5f8"/><path d="M-30 294L330-12l360 306" fill="none" stroke="#111a2e" stroke-width="42" stroke-linejoin="round"/><rect x="86" y="390" width="150" height="220" fill="#dfe4ee"/><rect x="126" y="452" width="72" height="158" fill="#0b2f8f"/><rect x="410" y="360" width="160" height="120" fill="#b9ddff"/><g transform="translate(188 105) rotate(-10)"><rect width="380" height="210" rx="14" fill="url(#panel)" stroke="#a8c3ff" stroke-width="8"/><path d="M95 0v210M190 0v210M285 0v210M0 70h380M0 140h380" stroke="#6388df" stroke-width="6"/></g></g><g transform="translate(960 405)"><rect width="210" height="270" rx="26" fill="#0a1020" stroke="#93a5cf" stroke-width="5"/><rect x="35" y="38" width="140" height="76" rx="12" fill="#c8e8ff"/><circle cx="105" cy="176" r="36" fill="#11265e"/><path d="M80 176h50" stroke="#ffc44f" stroke-width="10" stroke-linecap="round"/><rect x="250" y="35" width="220" height="330" rx="28" fill="#151b29" stroke="#8792a8" stroke-width="5"/><rect x="285" y="80" width="150" height="80" rx="12" fill="#0b2f8f"/><path d="M300 230h120M300 270h120" stroke="#cfd7e8" stroke-width="10" stroke-linecap="round"/><path d="M210 170h40" stroke="#ffc44f" stroke-width="9"/><path d="M470 210h80" stroke="#ffc44f" stroke-width="9"/></g><g transform="translate(1300 360)"><path d="M0 0v360M-65 65h130M-65 125h130" stroke="#8591a9" stroke-width="12"/><path d="M-55 280h110" stroke="#ff5d63" stroke-width="11"/><path d="M-35 245l70 70M35 245l-70 70" stroke="#ff5d63" stroke-width="10"/></g><text x="95" y="110" fill="#fff" font-family="Arial" font-size="62" font-weight="800">COULD YOU LIVE OFF-GRID?</text><text x="98" y="166" fill="#c8d7ff" font-family="Arial" font-size="28">Panels are only the beginning. Reliability starts with the load plan.</text></svg>